<svg xmlns="http://www.w3.org/2000/svg" width="1200" height="675" viewBox="0 0 1200 675" direction="rtl">
  <defs>
    <linearGradient id="bg" x1="0" x2="1" y1="0" y2="1">
      <stop offset="0" stop-color="#111827"/>
      <stop offset="1" stop-color="#c2410c"/>
    </linearGradient>
    <radialGradient id="spot" cx="24%" cy="15%" r="70%">
      <stop offset="0" stop-color="#fed7aa" stop-opacity=".55"/>
      <stop offset=".62" stop-color="#fed7aa" stop-opacity=".1"/>
      <stop offset="1" stop-color="#000" stop-opacity="0"/>
    </radialGradient>
    <marker id="arrow" viewBox="0 0 10 10" refX="8" refY="5" markerWidth="7" markerHeight="7" orient="auto">
      <path d="M0 0L10 5L0 10Z" fill="#fed7aa"/>
    </marker>
    <filter id="shadow" x="-20%" y="-20%" width="140%" height="150%">
      <feDropShadow dx="0" dy="26" stdDeviation="22" flood-color="#000" flood-opacity=".32"/>
    </filter>
  </defs>
  <rect width="1200" height="675" fill="url(#bg)"/>
  <rect width="1200" height="675" fill="url(#spot)"/>
  <g opacity=".12">
    <path d="M0 0V675" stroke="#fff" stroke-width="1"/><path d="M100 0V675" stroke="#fff" stroke-width="1"/><path d="M200 0V675" stroke="#fff" stroke-width="1"/><path d="M300 0V675" stroke="#fff" stroke-width="1"/><path d="M400 0V675" stroke="#fff" stroke-width="1"/><path d="M500 0V675" stroke="#fff" stroke-width="1"/><path d="M600 0V675" stroke="#fff" stroke-width="1"/><path d="M700 0V675" stroke="#fff" stroke-width="1"/><path d="M800 0V675" stroke="#fff" stroke-width="1"/><path d="M900 0V675" stroke="#fff" stroke-width="1"/><path d="M1000 0V675" stroke="#fff" stroke-width="1"/><path d="M1100 0V675" stroke="#fff" stroke-width="1"/><path d="M1200 0V675" stroke="#fff" stroke-width="1"/>
    <path d="M0 0H1200" stroke="#fff" stroke-width="1"/><path d="M0 96H1200" stroke="#fff" stroke-width="1"/><path d="M0 192H1200" stroke="#fff" stroke-width="1"/><path d="M0 288H1200" stroke="#fff" stroke-width="1"/><path d="M0 384H1200" stroke="#fff" stroke-width="1"/><path d="M0 480H1200" stroke="#fff" stroke-width="1"/><path d="M0 576H1200" stroke="#fff" stroke-width="1"/><path d="M0 672H1200" stroke="#fff" stroke-width="1"/>
  </g>
  <circle cx="1010" cy="118" r="155" fill="#fff" opacity=".09"/>
  <circle cx="96" cy="580" r="210" fill="#000" opacity=".12"/>
  <rect x="72" y="72" width="1056" height="531" rx="44" fill="#000" opacity=".22" filter="url(#shadow)"/>
  <rect x="104" y="104" width="992" height="467" rx="34" fill="#fff" opacity=".08"/>
  <g transform="translate(0 0)">
    <text x="1015" y="164" text-anchor="middle" direction="rtl" font-family="Arial, 'Noto Sans Hebrew', sans-serif" font-size="30" font-weight="900" fill="#fed7aa" opacity="0.98">חדשות למתמטיקאים</text>
    <text x="1015" y="210" text-anchor="middle" direction="rtl" font-family="Arial, 'Noto Sans Hebrew', sans-serif" font-size="26" font-weight="800" fill="#fff" opacity="0.86">פרק 24 · המחשבון לא קורא מחשבות</text>
    <text x="1015" y="292" text-anchor="middle" direction="rtl" font-family="Arial, 'Noto Sans Hebrew', sans-serif" font-size="54" font-weight="900" fill="#fff" opacity="1">מדריך Casio</text>
    <text x="1015" y="366" text-anchor="middle" direction="rtl" font-family="Arial, 'Noto Sans Hebrew', sans-serif" font-size="42" font-weight="900" fill="#fed7aa" opacity="1">(3+5)²</text>
  </g>
  <g transform="translate(150 100)">
        <rect x="0" y="0" width="310" height="360" rx="34" fill="#0f172a" stroke="#fff" stroke-width="6" opacity=".92"/>
        <rect x="35" y="38" width="240" height="68" rx="14" fill="#fed7aa" opacity=".86"/>
        <text x="155" y="84" text-anchor="middle" direction="rtl" font-family="Arial, 'Noto Sans Hebrew', sans-serif" font-size="34" font-weight="900" fill="#111827" opacity="1">(3+5)²</text>
        <circle cx="62" cy="156" r="22" fill="#fff" opacity="0.85"/><circle cx="124" cy="156" r="22" fill="#fff" opacity="0.48"/><circle cx="186" cy="156" r="22" fill="#fff" opacity="0.48"/><circle cx="248" cy="156" r="22" fill="#fff" opacity="0.85"/><circle cx="62" cy="214" r="22" fill="#fff" opacity="0.48"/><circle cx="124" cy="214" r="22" fill="#fff" opacity="0.48"/><circle cx="186" cy="214" r="22" fill="#fff" opacity="0.85"/><circle cx="248" cy="214" r="22" fill="#fff" opacity="0.48"/><circle cx="62" cy="272" r="22" fill="#fff" opacity="0.48"/><circle cx="124" cy="272" r="22" fill="#fff" opacity="0.85"/><circle cx="186" cy="272" r="22" fill="#fff" opacity="0.48"/><circle cx="248" cy="272" r="22" fill="#fff" opacity="0.48"/>
        <text x="500" y="170" text-anchor="middle" direction="rtl" font-family="Arial, 'Noto Sans Hebrew', sans-serif" font-size="50" font-weight="900" fill="#fff" opacity="1">CASIO</text>
        <text x="500" y="222" text-anchor="middle" direction="rtl" font-family="Arial, 'Noto Sans Hebrew', sans-serif" font-size="28" font-weight="900" fill="#fed7aa" opacity="1">סוגריים לפני שווה</text>
      </g>
  <rect x="742" y="466" width="312" height="54" rx="27" fill="#fff" opacity=".14"/>
  <text x="898" y="502" text-anchor="middle" direction="rtl" font-family="Arial, 'Noto Sans Hebrew', sans-serif" font-size="23" font-weight="900" fill="#fff" opacity="0.92">תמונה מקורית לכתבת הפרק</text>
</svg>